{"title":"Mud (2012)  BDRip 1080p","uid":8926002,"size":11738706385,"categoryP":"video","categoryS":"hd___movies","magnet":"?xt=urn:btih:993f8e2a48d5b478bd4ac376af4f820aa650efb9&amp;dn=Mud+%282012%29++BDRip+1080p&amp;tr=udp%3A%2F%2Ftracker.openbittorrent.com%3A80&amp;tr=udp%3A%2F%2Fopen.demonii.com%3A1337&amp;tr=udp%3A%2F%2Ftracker.coppersurfer.tk%3A6969&amp;tr=udp%3A%2F%2Fexodus.desync.com%3A6969","seeders":1,"leechers":0,"uploader":"yfjfrj","files":-1,"time":1379369042,"description":"General\nUnique ID                                : 220284720062170479253161900413941506849 (0xA5B94B3ACB2A66D0BDDDDC92AB2CE321)\nComplete name                            : D:moviesMad.2012.L.BDRip.1080p.mkv\nFormat                                   : Matroska\nFormat version                           : Version 2\nFile size                                : 10.9 GiB\nDuration                                 : 2h 10mn\nOverall bit rate                         : 12.0 Mbps\nEncoded date                             : UTC 2013-07-28 05:24:34\nWriting application                      : mkvmerge v5.2.0 ('I can't explain') built on Dec 18 2011 18:12:03\nWriting library                          : libebml v1.2.3 + libmatroska v1.3.0\n\nVideo\nID                                       : 1\nFormat                                   : AVC\nFormat/Info                              : Advanced Video Codec\nFormat profile                           : &lt;a class=&quot;__cf_email__&quot; href=&quot;/cdn-cgi/l/email-protection&quot; data-cfemail=&quot;024a6b656a424e362c33&quot;&gt;[email&amp;#160;protected]&lt;/a&gt;&lt;script cf-hash='f9e31' type=&quot;text/javascript&quot;&gt;\n/* &lt;![CDATA[ */!function(){try{var t=&quot;currentScript&quot;in document?document.currentScript:function(){for(var t=document.getElementsByTagName(&quot;script&quot;),e=t.length;e--;)if(t[e].getAttribute(&quot;cf-hash&quot;))return t[e]}();if(t&amp;&amp;t.previousSibling){var e,r,n,i,c=t.previousSibling,a=c.getAttribute(&quot;data-cfemail&quot;);if(a){for(e=&quot;&quot;,r=parseInt(a.substr(0,2),16),n=2;a.length-n;n+=2)i=parseInt(a.substr(n,2),16)^r,e+=String.fromCharCode(i);e=document.createTextNode(e),c.parentNode.replaceChild(e,c)}}}catch(u){}}();/* ]]&gt; */&lt;/script&gt;\nFormat settings, CABAC                   : Yes\nFormat settings, ReFrames                : 5 frames\nCodec ID                                 : V_MPEG4/ISO/AVC\nDuration                                 : 2h 10mn\nBit rate                                 : 9 782 Kbps\nWidth                                    : 1 920 pixels\nHeight                                   : 816 pixels\nDisplay aspect ratio                     : 2.35:1\nFrame rate mode                          : Constant\nFrame rate                               : 23.976 fps\nColor space                              : YUV\nChroma subsampling                       : 4:2:0\nBit depth                                : 8 bits\nScan type                                : Progressive\nBits/(Pixel*Frame)                       : 0.260\nStream size                              : 8.93 GiB (82%)\nWriting library                          : x264 core 133 r2334+704+50 a7549b7 tMod [8-bit@4:2:0 X86_64]\nEncoding settings                        : cabac=1 // deblock=1:-3:-3 / analyse=0x3:0x113 / me=umh / subme=10 / psy=1 / fade_compensate=0.00 / psy_rd=1.00:0.00 // me_range=32 / chroma_me=1 / trellis=2 / 8x8dct=1 / cqm=0 / deadzone=21,11 / fast_pskip=1 / chroma_qp_offset=-2 / threads=64 / lookahead_threads=6 / sliced_threads=0 / nr=0 / decimate=1 / interlaced=0 / bluray_compat=0 / constrained_intra=0 / fgo=0 / bframes=8 / b_pyramid=2 / b_adapt=2 / b_bias=0 / direct=3 / weightb=1 / open_gop=0 / weightp=2 / keyint=240 / keyint_min=23 / scenecut=40 / intra_refresh=0 / rc_lookahead=50 / rc=crf / mbtree=1 / crf=18.0000 / qcomp=0.70 / qpmin=0 / qpmax=69 / qpstep=4 / ip_ratio=1.40 / aq=4:0.90 / aq-sensitivity=10.00 / aq-factor=1.00:1.00:1.00 / aq2=0 / aq3=0\nLanguage                                 : English\nDefault                                  : Yes\nForced                                   : No\n\nAudio #1\nID                                       : 2\nFormat                                   : AC-3\nFormat/Info                              : Audio Coding 3\nMode extension                           : CM (complete main)\nFormat settings, Endianness              : Big\nCodec ID                                 : A_AC3\nDuration                                 : 2h 10mn\nBit rate mode                            : Constant\nBit rate                                 : 448 Kbps\nChannel(s)                               : 6 channels\nChannel positions                        : Front: L C R, Side: L R, LFE\nSampling rate                            : 48.0 KHz\nBit depth                                : 16 bits\nCompression mode                         : Lossy\nStream size                              : 419 MiB (4%)\nLanguage                                 : Russian\nDefault                                  : Yes\nForced                                   : No\n\nAudio #2\nID                                       : 3\nFormat                                   : DTS\nFormat/Info                              : Digital Theater Systems\nMode                                     : 16\nFormat settings, Endianness              : Big\nCodec ID                                 : A_DTS\nDuration                                 : 2h 10mn\nBit rate mode                            : Constant\nBit rate                                 : 1 509 Kbps\nChannel(s)                               : 6 channels\nChannel positions                        : Front: L C R, Side: L R, LFE\nSampling rate                            : 48.0 KHz\nBit depth                                : 24 bits\nCompression mode                         : Lossy\nStream size                              : 1.38 GiB (13%)\nLanguage                                 : English\nDefault                                  : No\nForced                                   : No\n\nText\nID                                       : 4\nFormat                                   : UTF-8\nCodec ID                                 : S_TEXT/UTF8\nCodec ID/Info                            : UTF-8 Plain Text\nLanguage                                 : English\nDefault                                  : No\nForced                                   : No\n\nMenu\n00:00:00.000                             : en:00:00:00.000\n00:07:59.187                             : en:00:07:59.187\n00:17:06.651                             : en:00:17:06.651\n00:24:48.987                             : en:00:24:48.987\n00:32:16.476                             : en:00:32:16.476\n00:39:46.175                             : en:00:39:46.175\n00:52:01.952                             : en:00:52:01.952\n00:57:58.308                             : en:00:57:58.308\n01:06:18.892                             : en:01:06:18.892\n01:17:45.286                             : en:01:17:45.286\n01:24:48.959                             : en:01:24:48.959\n01:32:28.501                             : en:01:32:28.501\n01:42:04.577                             : en:01:42:04.577\n01:50:34.378                             : en:01:50:34.378\n01:58:59.257                             : en:01:58:59.257\n02:07:01.447                             : en:02:07:01.447\n","torrent":{"xt":"urn:btih:993f8e2a48d5b478bd4ac376af4f820aa650efb9","amp;dn":"Mud+%282012%29++BDRip+1080p","amp;tr":["udp%3A%2F%2Ftracker.openbittorrent.com%3A80","udp%3A%2F%2Fopen.demonii.com%3A1337","udp%3A%2F%2Ftracker.coppersurfer.tk%3A6969","udp%3A%2F%2Fexodus.desync.com%3A6969"],"infoHash":"993f8e2a48d5b478bd4ac376af4f820aa650efb9","infoHashBuffer":{"type":"Buffer","data":[153,63,142,42,72,213,180,120,189,74,195,118,175,79,130,10,166,80,239,185]},"announce":[],"urlList":[]}}